{
    "asset" : {
        "generator" : "Khronos glTF Blender I/O v3.3.27",
        "version" : "2.0"
    },
    "extensionsUsed" : [
        "KHR_materials_specular",
        "KHR_materials_ior"
    ],
    "scene" : 0,
    "scenes" : [
        {
            "name" : "Scene",
            "nodes" : [
                0,
                1
            ]
        }
    ],
    "nodes" : [
        {
            "mesh" : 0,
            "name" : "Door"
        },
        {
            "mesh" : 1,
            "name" : "Valve",
            "translation" : [
                -0.25555020570755005,
                1,
                0
            ]
        }
    ],
    "materials" : [
        {
            "doubleSided" : true,
            "extensions" : {
                "KHR_materials_specular" : {
                    "specularColorFactor" : [
                        1.2787788772940745,
                        1.146229714524156,
                        1.1430731531798313
                    ]
                },
                "KHR_materials_ior" : {
                    "ior" : 1.4500000476837158
                }
            },
            "name" : "Door",
            "pbrMetallicRoughness" : {
                "baseColorFactor" : [
                    0.15723805129528046,
                    0.09412626922130585,
                    0.09262330830097198,
                    1
                ],
                "metallicFactor" : 0.9745454788208008,
                "roughnessFactor" : 0.503636360168457
            }
        },
        {
            "doubleSided" : true,
            "emissiveFactor" : [
                0.30483289698966587,
                0.01794847451832915,
                0.0578788266697563
            ],
            "name" : "Material.001",
            "pbrMetallicRoughness" : {
                "baseColorFactor" : [
                    0.002511046128347516,
                    0.0019089605193585157,
                    0.0023878836072981358,
                    1
                ],
                "metallicFactor" : 0,
                "roughnessFactor" : 0.5
            }
        },
        {
            "doubleSided" : true,
            "extensions" : {
                "KHR_materials_specular" : {
                    "specularColorFactor" : [
                        2.8038354447494815,
                        2.1944891946636678,
                        2.135134642183527
                    ]
                },
                "KHR_materials_ior" : {
                    "ior" : 1.4500000476837158
                }
            },
            "name" : "Valve",
            "pbrMetallicRoughness" : {
                "baseColorFactor" : [
                    0.4341537654399872,
                    0.0975872054696083,
                    0.06480328738689423,
                    1
                ],
                "metallicFactor" : 0.6581818461418152,
                "roughnessFactor" : 0.6527272462844849
            }
        }
    ],
    "meshes" : [
        {
            "name" : "Plane",
            "primitives" : [
                {
                    "attributes" : {
                        "POSITION" : 0,
                        "NORMAL" : 1,
                        "TEXCOORD_0" : 2
                    },
                    "indices" : 3,
                    "material" : 0
                },
                {
                    "attributes" : {
                        "POSITION" : 4,
                        "NORMAL" : 5,
                        "TEXCOORD_0" : 6
                    },
                    "indices" : 7,
                    "material" : 1
                },
                {
                    "attributes" : {
                        "POSITION" : 8,
                        "NORMAL" : 9,
                        "TEXCOORD_0" : 10
                    },
                    "indices" : 11,
                    "material" : 2
                }
            ]
        },
        {
            "name" : "NurbsPath.003",
            "primitives" : [
                {
                    "attributes" : {
                        "POSITION" : 12,
                        "NORMAL" : 13,
                        "TEXCOORD_0" : 14
                    },
                    "indices" : 15,
                    "material" : 2
                }
            ]
        }
    ],
    "accessors" : [
        {
            "bufferView" : 0,
            "componentType" : 5126,
            "count" : 47062,
            "max" : [
                7.549790126404332e-08,
                2,
                0.5
            ],
            "min" : [
                -0.2305431067943573,
                0,
                -0.5
            ],
            "type" : "VEC3"
        },
        {
            "bufferView" : 1,
            "componentType" : 5126,
            "count" : 47062,
            "type" : "VEC3"
        },
        {
            "bufferView" : 2,
            "componentType" : 5126,
            "count" : 47062,
            "type" : "VEC2"
        },
        {
            "bufferView" : 3,
            "componentType" : 5123,
            "count" : 66456,
            "type" : "SCALAR"
        },
        {
            "bufferView" : 4,
            "componentType" : 5126,
            "count" : 24,
            "max" : [
                -0.016931861639022827,
                1.6867800951004028,
                0.20300348103046417
            ],
            "min" : [
                -0.1904919147491455,
                1.513219952583313,
                -0.20300348103046417
            ],
            "type" : "VEC3"
        },
        {
            "bufferView" : 5,
            "componentType" : 5126,
            "count" : 24,
            "type" : "VEC3"
        },
        {
            "bufferView" : 6,
            "componentType" : 5126,
            "count" : 24,
            "type" : "VEC2"
        },
        {
            "bufferView" : 7,
            "componentType" : 5123,
            "count" : 36,
            "type" : "SCALAR"
        },
        {
            "bufferView" : 8,
            "componentType" : 5126,
            "count" : 5520,
            "max" : [
                -0.11677303910255432,
                1.7779735326766968,
                0.21500003337860107
            ],
            "min" : [
                -0.29612162709236145,
                1.4286565780639648,
                -0.21500006318092346
            ],
            "type" : "VEC3"
        },
        {
            "bufferView" : 9,
            "componentType" : 5126,
            "count" : 5520,
            "type" : "VEC3"
        },
        {
            "bufferView" : 10,
            "componentType" : 5126,
            "count" : 5520,
            "type" : "VEC2"
        },
        {
            "bufferView" : 11,
            "componentType" : 5123,
            "count" : 31020,
            "type" : "SCALAR"
        },
        {
            "bufferView" : 12,
            "componentType" : 5126,
            "count" : 3805,
            "max" : [
                0.020000124350190163,
                0.21999996900558472,
                0.22062499821186066
            ],
            "min" : [
                -0.01999988593161106,
                -0.22000005841255188,
                -0.21937504410743713
            ],
            "type" : "VEC3"
        },
        {
            "bufferView" : 13,
            "componentType" : 5126,
            "count" : 3805,
            "type" : "VEC3"
        },
        {
            "bufferView" : 14,
            "componentType" : 5126,
            "count" : 3805,
            "type" : "VEC2"
        },
        {
            "bufferView" : 15,
            "componentType" : 5123,
            "count" : 20712,
            "type" : "SCALAR"
        }
    ],
    "bufferViews" : [
        {
            "buffer" : 0,
            "byteLength" : 564744,
            "byteOffset" : 0,
            "target" : 34962
        },
        {
            "buffer" : 0,
            "byteLength" : 564744,
            "byteOffset" : 564744,
            "target" : 34962
        },
        {
            "buffer" : 0,
            "byteLength" : 376496,
            "byteOffset" : 1129488,
            "target" : 34962
        },
        {
            "buffer" : 0,
            "byteLength" : 132912,
            "byteOffset" : 1505984,
            "target" : 34963
        },
        {
            "buffer" : 0,
            "byteLength" : 288,
            "byteOffset" : 1638896,
            "target" : 34962
        },
        {
            "buffer" : 0,
            "byteLength" : 288,
            "byteOffset" : 1639184,
            "target" : 34962
        },
        {
            "buffer" : 0,
            "byteLength" : 192,
            "byteOffset" : 1639472,
            "target" : 34962
        },
        {
            "buffer" : 0,
            "byteLength" : 72,
            "byteOffset" : 1639664,
            "target" : 34963
        },
        {
            "buffer" : 0,
            "byteLength" : 66240,
            "byteOffset" : 1639736,
            "target" : 34962
        },
        {
            "buffer" : 0,
            "byteLength" : 66240,
            "byteOffset" : 1705976,
            "target" : 34962
        },
        {
            "buffer" : 0,
            "byteLength" : 44160,
            "byteOffset" : 1772216,
            "target" : 34962
        },
        {
            "buffer" : 0,
            "byteLength" : 62040,
            "byteOffset" : 1816376,
            "target" : 34963
        },
        {
            "buffer" : 0,
            "byteLength" : 45660,
            "byteOffset" : 1878416,
            "target" : 34962
        },
        {
            "buffer" : 0,
            "byteLength" : 45660,
            "byteOffset" : 1924076,
            "target" : 34962
        },
        {
            "buffer" : 0,
            "byteLength" : 30440,
            "byteOffset" : 1969736,
            "target" : 34962
        },
        {
            "buffer" : 0,
            "byteLength" : 41424,
            "byteOffset" : 2000176,
            "target" : 34963
        }
    ],
    "buffers" : [
        {
            "byteLength" : 2041600,
            "uri" : "data:application/octet-stream;base64,"
        }
    ]
}
