{
    "asset" : {
        "generator" : "Khronos glTF Blender I/O v3.3.27",
        "version" : "2.0"
    },
    "scene" : 0,
    "scenes" : [
        {
            "name" : "Scene",
            "nodes" : [
                0
            ]
        }
    ],
    "nodes" : [
        {
            "mesh" : 0,
            "name" : "Furnace",
            "rotation" : [
                0.7071068286895752,
                0,
                0.7071067094802856,
                0
            ],
            "scale" : [
                -0.13315527141094208,
                -0.4475369453430176,
                -0.4475369453430176
            ],
            "translation" : [
                -3.317765235900879,
                0.9022096395492554,
                -1.0509389638900757
            ]
        }
    ],
    "materials" : [
        {
            "doubleSided" : true,
            "name" : "Furnace",
            "pbrMetallicRoughness" : {
                "baseColorFactor" : [
                    0.06893396377563477,
                    0.19253723323345184,
                    0.5457127690315247,
                    1
                ],
                "roughnessFactor" : 0.3482142686843872
            }
        }
    ],
    "meshes" : [
        {
            "name" : "Cube.002",
            "primitives" : [
                {
                    "attributes" : {
                        "POSITION" : 0,
                        "NORMAL" : 1,
                        "TEXCOORD_0" : 2
                    },
                    "indices" : 3,
                    "material" : 0
                }
            ]
        }
    ],
    "accessors" : [
        {
            "bufferView" : 0,
            "componentType" : 5126,
            "count" : 116,
            "max" : [
                1,
                1.2726091146469116,
                1.0785114765167236
            ],
            "min" : [
                -1.7264059782028198,
                -1.1875957250595093,
                -1.1673238277435303
            ],
            "type" : "VEC3"
        },
        {
            "bufferView" : 1,
            "componentType" : 5126,
            "count" : 116,
            "type" : "VEC3"
        },
        {
            "bufferView" : 2,
            "componentType" : 5126,
            "count" : 116,
            "type" : "VEC2"
        },
        {
            "bufferView" : 3,
            "componentType" : 5123,
            "count" : 204,
            "type" : "SCALAR"
        }
    ],
    "bufferViews" : [
        {
            "buffer" : 0,
            "byteLength" : 1392,
            "byteOffset" : 0,
            "target" : 34962
        },
        {
            "buffer" : 0,
            "byteLength" : 1392,
            "byteOffset" : 1392,
            "target" : 34962
        },
        {
            "buffer" : 0,
            "byteLength" : 928,
            "byteOffset" : 2784,
            "target" : 34962
        },
        {
            "buffer" : 0,
            "byteLength" : 408,
            "byteOffset" : 3712,
            "target" : 34963
        }
    ],
    "buffers" : [
        {
            "byteLength" : 4120,
            "uri" : "data:application/octet-stream;base64,"
        }
    ]
}
