{
    "asset" : {
        "generator" : "Khronos glTF Blender I/O v3.3.27",
        "version" : "2.0"
    },
    "extensionsUsed" : [
        "KHR_materials_specular",
        "KHR_materials_ior"
    ],
    "scene" : 0,
    "scenes" : [
        {
            "name" : "Scene",
            "nodes" : [
                0
            ]
        }
    ],
    "nodes" : [
        {
            "mesh" : 0,
            "name" : "Wall"
        }
    ],
    "materials" : [
        {
            "doubleSided" : true,
            "extensions" : {
                "KHR_materials_specular" : {
                    "specularColorFactor" : [
                        0.98323993379831,
                        0.7582408248033876,
                        0.7582408248033876
                    ]
                },
                "KHR_materials_ior" : {
                    "ior" : 1.4500000476837158
                }
            },
            "name" : "MainWall",
            "pbrMetallicRoughness" : {
                "baseColorFactor" : [
                    0.3747115135192871,
                    0.08419626206159592,
                    0.08419626206159592,
                    1
                ],
                "metallicFactor" : 0.2321428507566452,
                "roughnessFactor" : 0.7946428656578064
            }
        }
    ],
    "meshes" : [
        {
            "name" : "Cube",
            "primitives" : [
                {
                    "attributes" : {
                        "POSITION" : 0,
                        "NORMAL" : 1,
                        "TEXCOORD_0" : 2
                    },
                    "indices" : 3,
                    "material" : 0
                }
            ]
        }
    ],
    "accessors" : [
        {
            "bufferView" : 0,
            "componentType" : 5126,
            "count" : 12872,
            "max" : [
                0.32591512799263,
                2.6684048175811768,
                -0.982563316822052
            ],
            "min" : [
                -5.935419082641602,
                -0.1483980119228363,
                -1.2923423051834106
            ],
            "type" : "VEC3"
        },
        {
            "bufferView" : 1,
            "componentType" : 5126,
            "count" : 12872,
            "type" : "VEC3"
        },
        {
            "bufferView" : 2,
            "componentType" : 5126,
            "count" : 12872,
            "type" : "VEC2"
        },
        {
            "bufferView" : 3,
            "componentType" : 5123,
            "count" : 17700,
            "type" : "SCALAR"
        }
    ],
    "bufferViews" : [
        {
            "buffer" : 0,
            "byteLength" : 154464,
            "byteOffset" : 0,
            "target" : 34962
        },
        {
            "buffer" : 0,
            "byteLength" : 154464,
            "byteOffset" : 154464,
            "target" : 34962
        },
        {
            "buffer" : 0,
            "byteLength" : 102976,
            "byteOffset" : 308928,
            "target" : 34962
        },
        {
            "buffer" : 0,
            "byteLength" : 35400,
            "byteOffset" : 411904,
            "target" : 34963
        }
    ],
    "buffers" : [
        {
            "byteLength" : 447304,
            "uri" : "data:application/octet-stream;base64,"
        }
    ]
}
